G04*
G04 #@! TF.GenerationSoftware,Altium Limited,Altium Designer,23.7.1 (13)*
G04*
G04 Layer_Color=65535*
%FSLAX44Y44*%
%MOMM*%
G71*
G04*
G04 #@! TF.SameCoordinates,3D622054-8652-465B-9F06-75010AC0AF96*
G04*
G04*
G04 #@! TF.FilePolarity,Positive*
G04*
G01*
G75*
%ADD10C,0.1778*%
%ADD11C,0.1780*%
%ADD12C,0.2000*%
%ADD13C,0.2540*%
%ADD14C,0.2032*%
%ADD15C,0.5000*%
%ADD16R,0.5080X3.2000*%
%ADD17R,10.1346X0.9144*%
G36*
X1003300Y347726D02*
X996950Y341376D01*
X1009650D01*
X1003300Y347726D01*
D02*
G37*
G36*
X1148334D02*
X1141984Y341376D01*
X1154684D01*
X1148334Y347726D01*
D02*
G37*
G36*
X626110Y999490D02*
X619760Y993140D01*
X623570D01*
Y986790D01*
X628650D01*
Y993140D01*
X632460D01*
X626110Y999490D01*
D02*
G37*
G36*
X825500D02*
X819150Y993140D01*
X822960D01*
Y986790D01*
X828040D01*
Y993140D01*
X831850D01*
X825500Y999490D01*
D02*
G37*
D10*
X813756Y838975D02*
G03*
X813756Y838975I-4522J0D01*
G01*
X852110Y838721D02*
G03*
X852110Y838721I-4522J0D01*
G01*
X829428Y779952D02*
G03*
X829428Y779952I-4522J0D01*
G01*
X839892Y730372D02*
G03*
X810427Y730626I-14859J-14605D01*
G01*
X809963Y989642D02*
G03*
X810288Y989361I-9863J-11742D01*
G01*
X853034Y1016762D02*
G03*
X853034Y1016762I-1626J0D01*
G01*
X801726Y1016508D02*
G03*
X801726Y1016508I-1626J0D01*
G01*
X860741Y989661D02*
G03*
X861088Y989361I-9841J-11761D01*
G01*
X640501Y730372D02*
G03*
X611037Y730626I-14859J-14605D01*
G01*
X630037Y779951D02*
G03*
X630037Y779951I-4522J0D01*
G01*
X652720Y838721D02*
G03*
X652720Y838721I-4522J0D01*
G01*
X614366Y838975D02*
G03*
X614366Y838975I-4522J0D01*
G01*
X661351Y989661D02*
G03*
X661698Y989361I-9841J-11761D01*
G01*
X602336Y1016508D02*
G03*
X602336Y1016508I-1626J0D01*
G01*
X653644Y1016762D02*
G03*
X653644Y1016762I-1626J0D01*
G01*
X610573Y989642D02*
G03*
X610898Y989361I-9863J-11742D01*
G01*
X672592Y458470D02*
X681482D01*
Y468122D02*
X728472D01*
Y458470D02*
X737108D01*
X681482Y448818D02*
X728472D01*
Y468122D01*
X681482Y448818D02*
Y468122D01*
X816102Y458470D02*
X824992D01*
Y468122D02*
X871982D01*
Y458470D02*
X880618D01*
X824992Y448818D02*
X871982D01*
Y468122D01*
X824992Y448818D02*
Y468122D01*
X815025Y836639D02*
X824931Y826733D01*
X847588Y843243D02*
X854446Y850101D01*
X871210D01*
X801106D02*
X807710Y843497D01*
X781802Y850101D02*
X801106D01*
X825160Y722942D02*
Y774822D01*
X824906Y784982D02*
Y826733D01*
X840146Y730118D02*
X868848D01*
X781218Y730372D02*
X810174D01*
X746450Y697956D02*
Y891860D01*
X904082Y697956D02*
Y891860D01*
X746450Y697956D02*
X904082D01*
X746450Y891860D02*
X904082D01*
X775208Y1003300D02*
X876046D01*
X774700Y952500D02*
Y990600D01*
X876300Y952500D02*
Y1016254D01*
X875030D02*
X876300D01*
X875030D02*
Y1024128D01*
X876300D01*
Y1028700D01*
X774700D02*
X876300D01*
X774700Y990600D02*
Y1028700D01*
X773176Y1017270D02*
Y1023620D01*
X825500Y957834D02*
Y996188D01*
X774700Y952500D02*
X876300D01*
X575310Y545846D02*
Y549910D01*
Y555244D01*
X585724Y537210D02*
Y561848D01*
X567690Y549910D02*
X575310D01*
X613410D02*
X621030D01*
X575310Y534420D02*
Y549910D01*
Y534420D02*
X613410D01*
Y566420D01*
X575310D02*
X613410D01*
X575310Y549910D02*
Y566420D01*
X622808Y643890D02*
X631698D01*
X575818Y634238D02*
X622808D01*
X567182Y643890D02*
X575818D01*
Y653542D02*
X622808D01*
X575818Y634238D02*
Y653542D01*
X622808Y634238D02*
Y653542D01*
X704088Y655066D02*
X708406Y659384D01*
X700024Y655828D02*
X704342Y660146D01*
X718292Y633896D02*
Y654008D01*
X696976Y651256D02*
X704342Y643890D01*
X696976Y636524D02*
X704342Y643890D01*
Y635254D02*
Y652018D01*
X774700Y552450D02*
Y568960D01*
X812800D01*
Y536960D02*
Y568960D01*
X774700Y536960D02*
X812800D01*
X774700D02*
Y552450D01*
X812800D02*
X820420D01*
X767080D02*
X774700D01*
X785114Y539750D02*
Y564388D01*
X774700Y552450D02*
Y557784D01*
Y548386D02*
Y552450D01*
X822198Y634238D02*
Y653542D01*
X775208Y634238D02*
Y653542D01*
X822198D01*
X766572Y643890D02*
X775208D01*
Y634238D02*
X822198D01*
Y643890D02*
X831088D01*
X906272Y635254D02*
Y652018D01*
X898906Y636524D02*
X906272Y643890D01*
X898906Y651256D02*
X906272Y643890D01*
X920222Y633896D02*
Y654008D01*
X901954Y655828D02*
X906272Y660146D01*
X906018Y655066D02*
X910336Y659384D01*
X1322070Y322580D02*
X1405890D01*
X1322070Y461010D02*
X1405890D01*
X1322070Y322580D02*
Y461010D01*
X1405890Y322580D02*
Y461010D01*
X1322070Y340360D02*
X1405890D01*
X1415669Y760730D02*
X1415796Y758952D01*
X1314450Y760730D02*
X1415669D01*
X1314704Y716026D02*
X1320546D01*
X1314450Y716280D02*
X1314704Y716026D01*
X1314450Y716280D02*
Y768350D01*
X1415796D01*
Y716280D02*
Y768350D01*
Y716280D02*
X1416050Y716026D01*
X1320546D02*
X1416050D01*
X1159764Y349250D02*
Y374396D01*
X1211834Y349250D02*
Y374650D01*
X1135634D02*
X1211834D01*
X1135634Y349250D02*
Y374650D01*
Y349250D02*
X1211834D01*
X1014730D02*
Y374396D01*
X1066800Y349250D02*
Y374650D01*
X990600D02*
X1066800D01*
X990600Y349250D02*
Y374650D01*
Y349250D02*
X1066800D01*
X547060Y891860D02*
X704692D01*
X547060Y697956D02*
X704692D01*
Y891860D01*
X547060Y697956D02*
Y891860D01*
X581827Y730372D02*
X610783D01*
X640755Y730118D02*
X669457D01*
X625515Y784982D02*
Y826733D01*
X625769Y722942D02*
Y774822D01*
X582411Y850101D02*
X601715D01*
X608319Y843497D01*
X655055Y850101D02*
X671819D01*
X648197Y843243D02*
X655055Y850101D01*
X615634Y836639D02*
X625541Y826733D01*
X575310Y952500D02*
X676910D01*
X626110Y957834D02*
Y996188D01*
X573786Y1017270D02*
Y1023620D01*
X575310Y990600D02*
Y1028700D01*
X676910D01*
Y1024128D02*
Y1028700D01*
X675640Y1024128D02*
X676910D01*
X675640Y1016254D02*
Y1024128D01*
Y1016254D02*
X676910D01*
Y952500D02*
Y1016254D01*
X575310Y952500D02*
Y990600D01*
X575818Y1003300D02*
X676656D01*
D11*
X718240Y654097D02*
G03*
X718202Y633795I-17251J-10119D01*
G01*
X920170Y654097D02*
G03*
X920132Y633795I-17251J-10119D01*
G01*
D12*
X678220Y528203D02*
G03*
X678220Y571618I15200J21707D01*
G01*
X880150Y529473D02*
G03*
X880150Y572887I15200J21707D01*
G01*
X677920Y528910D02*
Y570910D01*
X879850Y530180D02*
Y572180D01*
X1262380Y426720D02*
Y1028700D01*
X947420D02*
X1262380D01*
X947420Y426720D02*
Y1028700D01*
Y426720D02*
X1098210D01*
X1262380D01*
D13*
X1405250Y543560D02*
G03*
X1405250Y543560I-40000J0D01*
G01*
X1405530Y900430D02*
G03*
X1405530Y900430I-40000J0D01*
G01*
X1390396Y642620D02*
G03*
X1390396Y642620I-25146J0D01*
G01*
Y998220D02*
G03*
X1390396Y998220I-25146J0D01*
G01*
X602996Y458470D02*
G03*
X602996Y458470I-25146J0D01*
G01*
X765043Y855768D02*
X766135Y854676D01*
X1365250Y503560D02*
Y583560D01*
Y569976D02*
Y572008D01*
X1374902Y581660D01*
X1365250Y556514D02*
Y562356D01*
X1382014Y579120D01*
X1365250Y549148D02*
Y552196D01*
X1388364Y575310D01*
X1365250Y537718D02*
Y542290D01*
X1393952Y570992D01*
X1365250Y529844D02*
Y531876D01*
X1398524Y565150D01*
X1365250Y521716D02*
X1402080Y558546D01*
X1365250Y511556D02*
X1404112Y550418D01*
X1365758Y503682D02*
X1369060D01*
X1405128Y539750D01*
X1382522Y508000D02*
X1383030D01*
X1401064Y526034D01*
X1365530Y860430D02*
Y940430D01*
Y871982D02*
Y874014D01*
X1355878Y862330D02*
X1365530Y871982D01*
Y881634D02*
Y887476D01*
X1348766Y864870D02*
X1365530Y881634D01*
Y891794D02*
Y894842D01*
X1342416Y868680D02*
X1365530Y891794D01*
Y901700D02*
Y906272D01*
X1336828Y872998D02*
X1365530Y901700D01*
Y912114D02*
Y914146D01*
X1332256Y878840D02*
X1365530Y912114D01*
X1328700Y885444D02*
X1365530Y922274D01*
X1326668Y893572D02*
X1365530Y932434D01*
X1361720Y940308D02*
X1365022D01*
X1325652Y904240D02*
X1361720Y940308D01*
X1347750Y935990D02*
X1348258D01*
X1329716Y917956D02*
X1347750Y935990D01*
X1365250Y617728D02*
Y667766D01*
Y655828D02*
Y659892D01*
Y655828D02*
Y660146D01*
X1371346Y666242D01*
X1365250Y652272D02*
Y652526D01*
X1376934Y664210D01*
X1365250Y644652D02*
X1381760Y661162D01*
X1365250Y635254D02*
Y636270D01*
X1385316Y656336D01*
X1365250Y627126D02*
Y627380D01*
X1388872Y651002D01*
X1365250Y618998D02*
X1390396Y644144D01*
X1369822Y618236D02*
X1371854D01*
X1389126Y635508D01*
X1365250Y973074D02*
Y1023112D01*
Y980948D02*
Y985012D01*
Y980694D02*
Y985012D01*
X1359154Y974598D02*
X1365250Y980694D01*
Y988314D02*
Y988568D01*
X1353566Y976630D02*
X1365250Y988314D01*
X1348740Y979678D02*
X1365250Y996188D01*
Y1004570D02*
Y1005586D01*
X1345184Y984504D02*
X1365250Y1004570D01*
Y1013460D02*
Y1013714D01*
X1341628Y989838D02*
X1365250Y1013460D01*
X1340104Y996696D02*
X1365250Y1021842D01*
X1358646Y1022604D02*
X1360678D01*
X1341374Y1005332D02*
X1358646Y1022604D01*
X577850Y433578D02*
Y483616D01*
Y471678D02*
Y475742D01*
Y471678D02*
Y475996D01*
X583946Y482092D01*
X577850Y468122D02*
Y468376D01*
X589534Y480060D01*
X577850Y460502D02*
X594360Y477012D01*
X577850Y451104D02*
Y452120D01*
X597916Y472186D01*
X577850Y442976D02*
Y443230D01*
X601472Y466852D01*
X577850Y434848D02*
X602996Y459994D01*
X582422Y434086D02*
X584454D01*
X601726Y451358D01*
X565652Y855768D02*
X566745Y854676D01*
X748030Y900430D02*
Y915665D01*
X755648D01*
X758187Y913126D01*
Y908047D01*
X755648Y905508D01*
X748030D01*
X753108D02*
X758187Y900430D01*
X763265Y915665D02*
Y900430D01*
X773422D01*
X788657D02*
X778500D01*
X788657Y910587D01*
Y913126D01*
X786118Y915665D01*
X781039D01*
X778500Y913126D01*
X548640Y900430D02*
Y915665D01*
X556258D01*
X558797Y913126D01*
Y908047D01*
X556258Y905508D01*
X548640D01*
X553718D02*
X558797Y900430D01*
X563875Y915665D02*
Y900430D01*
X574032D01*
X579110D02*
X584188D01*
X581649D01*
Y915665D01*
X579110Y913126D01*
X547624Y663448D02*
Y678683D01*
X555242D01*
X557781Y676144D01*
Y671066D01*
X555242Y668526D01*
X547624D01*
X552702D02*
X557781Y663448D01*
X570477D02*
Y678683D01*
X562859Y671066D01*
X573016D01*
X588251Y678683D02*
X583172Y676144D01*
X578094Y671066D01*
Y665987D01*
X580633Y663448D01*
X585712D01*
X588251Y665987D01*
Y668526D01*
X585712Y671066D01*
X578094D01*
X796290Y478028D02*
Y493263D01*
X803907D01*
X806447Y490724D01*
Y485645D01*
X803907Y483106D01*
X796290D01*
X801368D02*
X806447Y478028D01*
X811525Y490724D02*
X814064Y493263D01*
X819143D01*
X821682Y490724D01*
Y488185D01*
X819143Y485645D01*
X816603D01*
X819143D01*
X821682Y483106D01*
Y480567D01*
X819143Y478028D01*
X814064D01*
X811525Y480567D01*
X747014Y663448D02*
Y678683D01*
X754632D01*
X757171Y676144D01*
Y671066D01*
X754632Y668526D01*
X747014D01*
X752092D02*
X757171Y663448D01*
X772406D02*
X762249D01*
X772406Y673605D01*
Y676144D01*
X769867Y678683D01*
X764788D01*
X762249Y676144D01*
X652780Y478028D02*
Y493263D01*
X660397D01*
X662937Y490724D01*
Y485645D01*
X660397Y483106D01*
X652780D01*
X657858D02*
X662937Y478028D01*
X668015D02*
X673093D01*
X670554D01*
Y493263D01*
X668015Y490724D01*
X891537Y588771D02*
Y598928D01*
X888997Y601467D01*
X883919D01*
X881380Y598928D01*
Y588771D01*
X883919Y586232D01*
X888997D01*
X886458Y591310D02*
X891537Y586232D01*
X888997D02*
X891537Y588771D01*
X906772Y586232D02*
X896615D01*
X906772Y596389D01*
Y598928D01*
X904233Y601467D01*
X899154D01*
X896615Y598928D01*
X689607Y587501D02*
Y597658D01*
X687067Y600197D01*
X681989D01*
X679450Y597658D01*
Y587501D01*
X681989Y584962D01*
X687067D01*
X684528Y590040D02*
X689607Y584962D01*
X687067D02*
X689607Y587501D01*
X694685Y584962D02*
X699763D01*
X697224D01*
Y600197D01*
X694685Y597658D01*
X883666Y687827D02*
Y672592D01*
X893823D01*
X909058Y687827D02*
X898901D01*
Y672592D01*
X909058D01*
X898901Y680210D02*
X903979D01*
X914136Y687827D02*
Y672592D01*
X921754D01*
X924293Y675131D01*
Y685288D01*
X921754Y687827D01*
X914136D01*
X939528Y672592D02*
X929371D01*
X939528Y682749D01*
Y685288D01*
X936989Y687827D01*
X931910D01*
X929371Y685288D01*
X681482Y687827D02*
Y672592D01*
X691639D01*
X706874Y687827D02*
X696717D01*
Y672592D01*
X706874D01*
X696717Y680210D02*
X701795D01*
X711952Y687827D02*
Y672592D01*
X719570D01*
X722109Y675131D01*
Y685288D01*
X719570Y687827D01*
X711952D01*
X727187Y672592D02*
X732266D01*
X729726D01*
Y687827D01*
X727187Y685288D01*
X1329941Y498851D02*
X1324862D01*
X1327401D01*
Y486155D01*
X1324862Y483616D01*
X1322323D01*
X1319784Y486155D01*
X1335019Y483616D02*
Y493773D01*
X1340097Y498851D01*
X1345176Y493773D01*
Y483616D01*
Y491233D01*
X1335019D01*
X1360411Y496312D02*
X1357872Y498851D01*
X1352793D01*
X1350254Y496312D01*
Y486155D01*
X1352793Y483616D01*
X1357872D01*
X1360411Y486155D01*
X1365489Y498851D02*
Y483616D01*
Y488694D01*
X1375646Y498851D01*
X1368028Y491233D01*
X1375646Y483616D01*
X1395959Y498851D02*
Y483616D01*
X1403577D01*
X1406116Y486155D01*
Y496312D01*
X1403577Y498851D01*
X1395959D01*
X1421351Y496312D02*
X1418812Y498851D01*
X1413734D01*
X1411194Y496312D01*
Y486155D01*
X1413734Y483616D01*
X1418812D01*
X1421351Y486155D01*
X1426429Y483616D02*
X1431508D01*
X1428969D01*
Y498851D01*
X1426429Y496312D01*
X1002535Y398775D02*
X997456D01*
X999995D01*
Y386079D01*
X997456Y383540D01*
X994917D01*
X992378Y386079D01*
X1017770Y383540D02*
X1007613D01*
X1017770Y393697D01*
Y396236D01*
X1015231Y398775D01*
X1010152D01*
X1007613Y396236D01*
X1147315Y398775D02*
X1142236D01*
X1144775D01*
Y386079D01*
X1142236Y383540D01*
X1139697D01*
X1137158Y386079D01*
X1152393Y383540D02*
X1157471D01*
X1154932D01*
Y398775D01*
X1152393Y396236D01*
X1290574Y856991D02*
X1295652D01*
X1293113D01*
Y841756D01*
X1290574D01*
X1295652D01*
X1313427Y854452D02*
X1310887Y856991D01*
X1305809D01*
X1303270Y854452D01*
Y844295D01*
X1305809Y841756D01*
X1310887D01*
X1313427Y844295D01*
X1318505Y841756D02*
X1323583D01*
X1321044D01*
Y856991D01*
X1318505Y854452D01*
X774954Y1052317D02*
Y1037082D01*
Y1044699D01*
X785111D01*
Y1052317D01*
Y1037082D01*
X790189Y1052317D02*
Y1037082D01*
X797807D01*
X800346Y1039621D01*
Y1049778D01*
X797807Y1052317D01*
X790189D01*
X815581Y1037082D02*
X805424D01*
X815581Y1047239D01*
Y1049778D01*
X813042Y1052317D01*
X807963D01*
X805424Y1049778D01*
X575310Y1052317D02*
Y1037082D01*
Y1044699D01*
X585467D01*
Y1052317D01*
Y1037082D01*
X590545Y1052317D02*
Y1037082D01*
X598163D01*
X600702Y1039621D01*
Y1049778D01*
X598163Y1052317D01*
X590545D01*
X605780Y1037082D02*
X610858D01*
X608319D01*
Y1052317D01*
X605780Y1049778D01*
X747014Y592577D02*
Y577342D01*
X754632D01*
X757171Y579881D01*
Y590038D01*
X754632Y592577D01*
X747014D01*
X772406Y577342D02*
X762249D01*
X772406Y587499D01*
Y590038D01*
X769867Y592577D01*
X764788D01*
X762249Y590038D01*
X547624Y590037D02*
Y574802D01*
X555242D01*
X557781Y577341D01*
Y587498D01*
X555242Y590037D01*
X547624D01*
X562859Y574802D02*
X567937D01*
X565398D01*
Y590037D01*
X562859Y587498D01*
X1345689Y1050286D02*
X1343150Y1052825D01*
X1338071D01*
X1335532Y1050286D01*
Y1040129D01*
X1338071Y1037590D01*
X1343150D01*
X1345689Y1040129D01*
X1360924Y1052825D02*
X1350767D01*
Y1045208D01*
X1355845Y1047747D01*
X1358385D01*
X1360924Y1045208D01*
Y1040129D01*
X1358385Y1037590D01*
X1353306D01*
X1350767Y1040129D01*
X1337053Y961894D02*
X1334514Y964433D01*
X1329435D01*
X1326896Y961894D01*
Y951737D01*
X1329435Y949198D01*
X1334514D01*
X1337053Y951737D01*
X1349749Y949198D02*
Y964433D01*
X1342131Y956815D01*
X1352288D01*
X1346705Y694686D02*
X1344165Y697225D01*
X1339087D01*
X1336548Y694686D01*
Y684529D01*
X1339087Y681990D01*
X1344165D01*
X1346705Y684529D01*
X1351783Y694686D02*
X1354322Y697225D01*
X1359401D01*
X1361940Y694686D01*
Y692147D01*
X1359401Y689607D01*
X1356861D01*
X1359401D01*
X1361940Y687068D01*
Y684529D01*
X1359401Y681990D01*
X1354322D01*
X1351783Y684529D01*
X1336799Y605024D02*
X1334259Y607563D01*
X1329181D01*
X1326642Y605024D01*
Y594867D01*
X1329181Y592328D01*
X1334259D01*
X1336799Y594867D01*
X1352034Y592328D02*
X1341877D01*
X1352034Y602485D01*
Y605024D01*
X1349495Y607563D01*
X1344416D01*
X1341877Y605024D01*
X559305Y510536D02*
X556766Y513075D01*
X551687D01*
X549148Y510536D01*
Y500379D01*
X551687Y497840D01*
X556766D01*
X559305Y500379D01*
X564383Y497840D02*
X569461D01*
X566922D01*
Y513075D01*
X564383Y510536D01*
X948944Y1047492D02*
X959101Y1037335D01*
X948944D02*
X959101Y1047492D01*
X948944Y1042413D02*
X959101D01*
X954022Y1037335D02*
Y1047492D01*
D14*
X1304290Y768350D02*
X1426210D01*
X1441450Y702310D02*
Y833120D01*
X1426210D02*
X1441450D01*
X1426210Y783590D02*
Y833120D01*
X1390650Y783590D02*
X1426210D01*
X1390650D02*
Y833120D01*
X1383030D02*
X1390650D01*
X1383030Y814070D02*
Y833120D01*
X1377950Y808990D02*
X1383030Y814070D01*
X1377950Y808990D02*
X1380490Y806450D01*
Y788670D02*
Y806450D01*
X1375410Y783590D02*
X1380490Y788670D01*
X1350010D02*
X1355090Y783590D01*
X1350010Y788670D02*
Y806450D01*
X1352550Y808990D01*
X1347470Y814070D02*
X1352550Y808990D01*
X1347470Y814070D02*
Y833120D01*
X1339850D02*
X1347470D01*
X1339850Y783590D02*
Y833120D01*
X1304290Y783590D02*
X1339850D01*
X1304290D02*
Y833120D01*
X1289050D02*
X1304290D01*
X1355090Y783590D02*
X1375410D01*
X1289050Y702310D02*
Y833120D01*
Y702310D02*
X1304290D01*
Y768350D01*
X1426210Y702310D02*
Y768350D01*
Y702310D02*
X1441450D01*
D15*
X636190Y1080363D02*
Y1060370D01*
X646187D01*
X649519Y1063702D01*
Y1077031D01*
X646187Y1080363D01*
X636190D01*
X656183Y1060370D02*
X662848D01*
X659516D01*
Y1073699D01*
X656183D01*
X672845Y1060370D02*
Y1073699D01*
X682842D01*
X686174Y1070367D01*
Y1060370D01*
X692838Y1080363D02*
Y1060370D01*
Y1070367D01*
X696171Y1073699D01*
X702835D01*
X706167Y1070367D01*
Y1060370D01*
X732825D02*
Y1080363D01*
X742822D01*
X746154Y1077031D01*
Y1070367D01*
X742822Y1067035D01*
X732825D01*
X752819Y1080363D02*
Y1060370D01*
Y1070367D01*
X756151Y1073699D01*
X762816D01*
X766148Y1070367D01*
Y1060370D01*
X772813D02*
X779477D01*
X776145D01*
Y1073699D01*
X772813D01*
X809467Y1070367D02*
X822796D01*
X849455Y1080363D02*
X862784D01*
X856119D01*
Y1060370D01*
X872780Y1073699D02*
X879445D01*
X882777Y1070367D01*
Y1060370D01*
X872780D01*
X869448Y1063702D01*
X872780Y1067035D01*
X882777D01*
X892774Y1077031D02*
Y1073699D01*
X889442D01*
X896106D01*
X892774D01*
Y1063702D01*
X896106Y1060370D01*
X926096Y1080363D02*
Y1060370D01*
X936093D01*
X939426Y1063702D01*
Y1067035D01*
X936093Y1070367D01*
X926096D01*
X936093D01*
X939426Y1073699D01*
Y1077031D01*
X936093Y1080363D01*
X926096D01*
X946090Y1060370D02*
X952755D01*
X949422D01*
Y1073699D01*
X946090D01*
X962751Y1060370D02*
Y1073699D01*
X972748D01*
X976080Y1070367D01*
Y1060370D01*
X982745Y1080363D02*
Y1060370D01*
Y1070367D01*
X986077Y1073699D01*
X992742D01*
X996074Y1070367D01*
Y1060370D01*
D16*
X577879Y550420D02*
D03*
X777271Y552960D02*
D03*
D17*
X1364869Y763524D02*
D03*
M02*
