M48
;Layer_Color=9474304
;FILE_FORMAT=2:4
INCH,LZ
;TYPE=PLATED
T01F00S00C0.0236
T02F00S00C0.0310
T03F00S00C0.0315
T04F00S00C0.0320
T05F00S00C0.0350
T06F00S00C0.0354
T07F00S00C0.0360
T08F00S00C0.0390
T09F00S00C0.0450
T10F00S00C0.0500
T12F00S00C0.0700
%
T01
X0489Y0213
Y0223
Y0233
Y0243
Y0253
Y0263
Y0273
Y0283
Y0293
Y0303
X038073
Y0293
Y0283
Y0273
Y0263
Y0253
Y0243
Y0233
Y0223
Y0213
Y0313
Y0323
Y0333
Y0343
Y0353
X0489
Y0343
Y0333
Y0323
Y0313
T02
X03165Y01805
X03515
X0332Y02535
X0297
X02535
X02185
X026Y01805
X0295
T03
X05325Y0253
X05425
X02325Y01805
X02225
X05325Y0393
X05425
T04
X03505Y02535
X03605
X0281
X0271
T05
X03275Y02175
X02975
X0249Y02165
X0219
T06
X053061Y0214
X054439
X03525Y0212
Y0217
Y0222
X0273Y02215
Y02165
Y02115
X053072Y03545
X05445
T07
X0395Y01425
X04051
X04149
X04521
X04622
X0472
T08
X05275Y02895
X05375
X05475
T09
X032488Y028113
X03485Y0289
X030126
X027
X024638Y028113
X022276Y0289
Y033703
X027076
X030126Y033703
X034926
T10
X02365Y0385
X02565
X0315
X0335
T12
X05375Y03125
M30
