G04*
G04 #@! TF.GenerationSoftware,Altium Limited,Altium Designer,23.7.1 (13)*
G04*
G04 Layer_Color=8388736*
%FSLAX44Y44*%
%MOMM*%
G71*
G04*
G04 #@! TF.SameCoordinates,3D622054-8652-465B-9F06-75010AC0AF96*
G04*
G04*
G04 #@! TF.FilePolarity,Negative*
G04*
G01*
G75*
%ADD18O,2.7032X1.4032*%
%ADD19C,1.9812*%
%ADD20C,3.2512*%
%ADD21C,2.9972*%
%ADD22R,2.2352X2.2352*%
%ADD23C,2.2352*%
%ADD24R,1.8542X2.7432*%
%ADD25O,1.8542X2.7432*%
%ADD26O,2.2032X1.2032*%
%ADD27O,2.2032X1.2032*%
%ADD28R,2.3032X2.3032*%
%ADD29C,2.3032*%
%ADD30R,4.2672X2.7432*%
%ADD31R,2.7432X4.2672*%
%ADD32R,1.5032X1.7032*%
%ADD33O,1.5032X1.7032*%
%ADD34C,4.0132*%
%ADD35O,2.2352X2.7432*%
%ADD36R,2.2352X2.7432*%
%ADD37O,1.8542X2.1082*%
%ADD38R,2.7032X1.4032*%
D18*
X967060Y896620D02*
D03*
Y871220D02*
D03*
Y693420D02*
D03*
Y845820D02*
D03*
Y820420D02*
D03*
Y795020D02*
D03*
Y769620D02*
D03*
Y744220D02*
D03*
Y718820D02*
D03*
Y668020D02*
D03*
Y642620D02*
D03*
Y617220D02*
D03*
Y591820D02*
D03*
Y566420D02*
D03*
Y541020D02*
D03*
X1242060Y896620D02*
D03*
Y871220D02*
D03*
Y845820D02*
D03*
Y820420D02*
D03*
Y795020D02*
D03*
Y769620D02*
D03*
Y744220D02*
D03*
Y718820D02*
D03*
Y693420D02*
D03*
Y668020D02*
D03*
Y642620D02*
D03*
Y617220D02*
D03*
Y591820D02*
D03*
Y566420D02*
D03*
D19*
X660400Y458470D02*
D03*
X749300D02*
D03*
X803910D02*
D03*
X892810D02*
D03*
X643890Y643890D02*
D03*
X554990D02*
D03*
X754380D02*
D03*
X843280D02*
D03*
D20*
X885190Y734060D02*
D03*
X765190D02*
D03*
X887110Y856060D02*
D03*
X765190D02*
D03*
X825190Y714060D02*
D03*
X625800Y714060D02*
D03*
X565800Y856060D02*
D03*
X687720D02*
D03*
X565800Y734060D02*
D03*
X685800D02*
D03*
D21*
X850900Y977900D02*
D03*
X800100D02*
D03*
X600710D02*
D03*
X651510D02*
D03*
D22*
X556260Y549910D02*
D03*
X755650Y552450D02*
D03*
D23*
X632460Y549910D02*
D03*
X831850Y552450D02*
D03*
D24*
X688340Y643890D02*
D03*
X890270D02*
D03*
D25*
X713740D02*
D03*
X915670D02*
D03*
D26*
X693420Y537210D02*
D03*
X895350Y538480D02*
D03*
D27*
X693420Y549910D02*
D03*
Y562610D02*
D03*
X895350Y563880D02*
D03*
Y551180D02*
D03*
D28*
X1347750Y543560D02*
D03*
X1383030Y900430D02*
D03*
D29*
X1382750Y543560D02*
D03*
X1348030Y900430D02*
D03*
D30*
X1360170Y462280D02*
D03*
Y398780D02*
D03*
D31*
X1410970Y436880D02*
D03*
D32*
X1352550Y642620D02*
D03*
X1377950Y998220D02*
D03*
X565150Y458470D02*
D03*
D33*
X1377950Y642620D02*
D03*
X1352550Y998220D02*
D03*
X590550Y458470D02*
D03*
D34*
X1365250Y793750D02*
D03*
D35*
X1390650Y735330D02*
D03*
X1365250D02*
D03*
D36*
X1339850D02*
D03*
D37*
X1148334Y361950D02*
D03*
X1173988D02*
D03*
X1198880D02*
D03*
X1003300D02*
D03*
X1028954D02*
D03*
X1053846D02*
D03*
D38*
X1242060Y541020D02*
D03*
M02*
