G04*
G04 #@! TF.GenerationSoftware,Altium Limited,Altium Designer,23.7.1 (13)*
G04*
G04 Layer_Color=255*
%FSLAX44Y44*%
%MOMM*%
G71*
G04*
G04 #@! TF.SameCoordinates,3D622054-8652-465B-9F06-75010AC0AF96*
G04*
G04*
G04 #@! TF.FilePolarity,Positive*
G04*
G01*
G75*
%ADD39O,2.5000X1.2000*%
%ADD40C,1.7780*%
%ADD41C,3.0480*%
%ADD42C,2.7940*%
%ADD43R,2.0320X2.0320*%
%ADD44C,2.0320*%
%ADD45R,1.6510X2.5400*%
%ADD46O,1.6510X2.5400*%
%ADD47O,2.0000X1.0000*%
%ADD48O,2.0000X1.0000*%
%ADD49R,2.1000X2.1000*%
%ADD50C,2.1000*%
%ADD51R,4.0640X2.5400*%
%ADD52R,2.5400X4.0640*%
%ADD53R,1.3000X1.5000*%
%ADD54O,1.3000X1.5000*%
%ADD55C,3.8100*%
%ADD56O,2.0320X2.5400*%
%ADD57R,2.0320X2.5400*%
%ADD58O,1.6510X1.9050*%
%ADD59R,2.5000X1.2000*%
D39*
X967060Y896620D02*
D03*
Y871220D02*
D03*
Y693420D02*
D03*
Y845820D02*
D03*
Y820420D02*
D03*
Y795020D02*
D03*
Y769620D02*
D03*
Y744220D02*
D03*
Y718820D02*
D03*
Y668020D02*
D03*
Y642620D02*
D03*
Y617220D02*
D03*
Y591820D02*
D03*
Y566420D02*
D03*
Y541020D02*
D03*
X1242060Y896620D02*
D03*
Y871220D02*
D03*
Y845820D02*
D03*
Y820420D02*
D03*
Y795020D02*
D03*
Y769620D02*
D03*
Y744220D02*
D03*
Y718820D02*
D03*
Y693420D02*
D03*
Y668020D02*
D03*
Y642620D02*
D03*
Y617220D02*
D03*
Y591820D02*
D03*
Y566420D02*
D03*
D40*
X660400Y458470D02*
D03*
X749300D02*
D03*
X803910D02*
D03*
X892810D02*
D03*
X643890Y643890D02*
D03*
X554990D02*
D03*
X754380D02*
D03*
X843280D02*
D03*
D41*
X885190Y734060D02*
D03*
X765190D02*
D03*
X887110Y856060D02*
D03*
X765190D02*
D03*
X825190Y714060D02*
D03*
X625800Y714060D02*
D03*
X565800Y856060D02*
D03*
X687720D02*
D03*
X565800Y734060D02*
D03*
X685800D02*
D03*
D42*
X850900Y977900D02*
D03*
X800100D02*
D03*
X600710D02*
D03*
X651510D02*
D03*
D43*
X556260Y549910D02*
D03*
X755650Y552450D02*
D03*
D44*
X632460Y549910D02*
D03*
X831850Y552450D02*
D03*
D45*
X688340Y643890D02*
D03*
X890270D02*
D03*
D46*
X713740D02*
D03*
X915670D02*
D03*
D47*
X693420Y537210D02*
D03*
X895350Y538480D02*
D03*
D48*
X693420Y549910D02*
D03*
Y562610D02*
D03*
X895350Y563880D02*
D03*
Y551180D02*
D03*
D49*
X1347750Y543560D02*
D03*
X1383030Y900430D02*
D03*
D50*
X1382750Y543560D02*
D03*
X1348030Y900430D02*
D03*
D51*
X1360170Y462280D02*
D03*
Y398780D02*
D03*
D52*
X1410970Y436880D02*
D03*
D53*
X1352550Y642620D02*
D03*
X1377950Y998220D02*
D03*
X565150Y458470D02*
D03*
D54*
X1377950Y642620D02*
D03*
X1352550Y998220D02*
D03*
X590550Y458470D02*
D03*
D55*
X1365250Y793750D02*
D03*
D56*
X1390650Y735330D02*
D03*
X1365250D02*
D03*
D57*
X1339850D02*
D03*
D58*
X1148334Y361950D02*
D03*
X1173988D02*
D03*
X1198880D02*
D03*
X1003300D02*
D03*
X1028954D02*
D03*
X1053846D02*
D03*
D59*
X1242060Y541020D02*
D03*
M02*
